<svg version="1.1" id="Layer_1" xmlns="http://www.w3.org/2000/svg" xmlns:xlink="http://www.w3.org/1999/xlink" x="0px" y="0px"
	 width="100%" viewBox="0 0 672 672" enable-background="new 0 0 672 672" xml:space="preserve">
<path fill="#000000" opacity="1.000000" stroke="none" 
	d="
M30.929474,284.175079 
	C36.277451,259.130005 43.134556,235.025742 53.618698,212.033112 
	C68.255371,179.933563 87.487732,150.994461 111.668083,125.247406 
	C130.609039,105.079216 151.788879,87.673897 175.183289,73.079689 
	C198.873596,58.300915 224.181183,46.865421 251.053238,39.004314 
	C292.806793,26.789801 335.159576,23.247408 378.456116,28.351227 
	C415.470001,32.714443 450.323944,43.642841 483.406799,60.331890 
	C510.466888,73.982658 534.797363,91.588280 556.810242,112.547737 
	C579.308350,133.969162 598.330688,158.027283 613.663147,184.943115 
	C628.642883,211.239777 639.714233,239.088074 646.519165,268.718689 
	C652.661865,295.465973 655.952881,322.446808 654.985107,349.799744 
	C654.006592,377.457367 649.590454,404.606201 641.456055,431.208801 
	C631.971924,462.225372 617.960205,490.932892 599.991516,517.803833 
	C598.341003,520.272156 598.819519,521.657410 601.180908,522.982361 
	C602.776672,523.877808 604.264709,524.963013 605.825500,525.923340 
	C612.291809,529.901917 612.276672,529.884888 608.202087,536.538757 
	C592.720276,561.820679 577.191833,587.074524 561.845398,612.438354 
	C559.671692,616.031006 557.637573,616.527832 554.295776,614.251221 
	C545.883972,608.520691 536.730896,604.062439 527.889648,599.066589 
	C524.459106,597.128113 521.677124,597.151123 518.290894,599.511108 
	C480.244537,626.027039 438.165161,643.019165 392.554596,650.699768 
	C362.912170,655.691467 333.047791,656.296936 303.008759,652.624146 
	C257.783722,647.094604 215.983627,632.271729 177.040405,608.956970 
	C171.756912,605.793762 166.611328,602.364502 161.632843,598.741089 
	C158.666534,596.582214 156.152359,596.394897 152.987747,598.244629 
	C144.074615,603.454285 134.953003,608.309814 126.084282,613.591675 
	C122.718811,615.595947 121.040108,615.143555 118.986214,611.761230 
	C103.858246,586.848694 88.544998,562.048584 73.264137,537.229065 
	C69.504601,531.122742 69.700775,530.292053 76.057014,526.446960 
	C78.458328,524.994324 80.787491,523.422363 83.393394,521.748169 
	C78.542984,513.895447 73.714333,506.380035 69.185547,498.688110 
	C56.545807,477.219910 46.752144,454.535858 39.543041,430.650970 
	C29.598101,397.701752 25.039467,364.061493 26.040977,329.735809 
	C26.482090,314.617188 28.750393,299.595306 30.929474,284.175079 
M574.211365,508.276184 
	C578.581055,509.735229 582.161560,512.999146 586.851501,514.099426 
	C602.963074,491.169006 615.697327,466.826630 625.044250,440.598999 
	C634.158875,415.023315 639.844971,388.705475 641.404541,361.752625 
	C642.747620,338.539886 642.199951,315.291962 638.244263,292.099304 
	C633.047546,261.631042 624.078186,232.537460 610.048645,205.101257 
	C582.724487,151.666214 543.063721,109.792183 491.091187,79.620102 
	C448.183197,54.710354 401.827789,41.661060 352.415649,39.377037 
	C325.327515,38.124908 298.496246,40.915630 272.115326,47.056923 
	C237.933578,55.014191 206.065430,68.562698 176.540375,87.672462 
	C141.056381,110.639069 111.602554,139.735474 88.430946,174.952972 
	C60.677582,217.134079 44.269814,263.479889 40.126312,313.942566 
	C37.231915,349.192688 39.773827,383.970062 49.051956,418.247620 
	C58.150669,451.862396 72.537941,482.903351 92.288902,511.548798 
	C94.421921,514.642395 95.941078,514.819092 99.081734,513.126770 
	C118.153259,502.849976 137.779556,493.737183 158.014206,485.974792 
	C165.585052,483.070465 173.231461,480.363129 181.648453,477.270172 
	C157.315887,448.405548 141.403076,415.941711 134.450424,379.486206 
	C127.456284,342.813110 130.286438,306.698547 142.632141,271.321289 
	C154.942688,236.044800 175.245651,206.195129 203.416763,181.884216 
	C273.629761,121.292290 373.433533,113.401443 451.989410,162.909760 
	C495.162842,190.118973 525.363281,228.227814 540.317444,276.989807 
	C562.778625,350.230560 547.601685,416.816528 500.148590,477.102386 
	C525.981384,485.688110 550.179565,495.845245 574.211365,508.276184 
M214.111572,189.606079 
	C213.020340,190.634445 211.970764,191.711563 210.831772,192.684006 
	C184.888275,214.834076 166.299332,242.254715 154.948761,274.178925 
	C141.403366,312.276154 139.633072,351.250336 149.988312,390.548370 
	C157.714127,419.867798 171.684067,445.874817 191.373428,468.901489 
	C194.109879,472.101776 196.676010,473.445312 200.796112,471.739349 
	C204.003281,470.411377 207.450714,469.621552 210.836945,468.774780 
	C237.175446,462.188721 263.762756,457.261932 290.827484,454.424713 
	C327.472870,450.583191 364.019928,451.126068 400.510406,455.110321 
	C427.650238,458.073639 454.454468,463.316376 480.587494,471.396881 
	C484.965820,472.750702 487.285187,471.590363 489.927582,468.481750 
	C511.468964,443.139404 526.246216,414.430267 533.087341,381.812592 
	C537.833923,359.181244 539.114868,336.410583 535.713745,313.397095 
	C532.347168,290.617249 525.560730,269.014099 514.754150,248.703262 
	C499.363861,219.777390 478.070892,196.080185 450.977936,177.670303 
	C425.184601,160.143524 396.802887,149.344803 365.813843,145.517014 
	C332.976807,141.460968 301.076813,145.137482 270.082031,156.844482 
	C249.775253,164.514511 231.490433,175.564835 214.111572,189.606079 
M222.414841,556.796570 
	C231.590927,554.412537 240.710342,551.846558 249.984558,549.801331 
	C276.571747,543.938293 303.481293,540.740662 330.649689,540.015625 
	C366.793732,539.050964 402.489624,543.104614 437.608765,551.578857 
	C477.008392,561.085999 514.458557,575.710144 549.522400,596.154175 
	C553.486328,598.465393 555.388733,598.499207 557.966797,594.160095 
	C568.938904,575.693298 580.326294,557.472229 591.649353,539.215637 
	C593.553711,536.145203 594.564758,533.985840 590.358154,531.685730 
	C578.227173,525.052734 566.117004,518.409973 553.608398,512.492310 
	C494.139801,484.358154 431.477356,468.723846 365.864258,465.455292 
	C328.017792,463.569946 290.264374,465.764587 252.920898,472.620117 
	C195.710327,483.122894 141.924545,503.010193 91.519386,532.076904 
	C87.617584,534.326965 87.439316,536.265381 89.730438,539.914062 
	C100.887573,557.682312 111.928497,575.527161 122.702141,593.529480 
	C125.078781,597.500793 126.879822,597.898254 130.827423,595.630554 
	C159.539536,579.136597 189.872589,566.376892 222.414841,556.796570 
M496.871582,584.726135 
	C444.862061,562.919495 390.596619,552.521912 334.272980,553.310364 
	C277.941559,554.098816 223.961365,565.701233 172.707626,589.834656 
	C231.690887,629.953979 296.721893,646.559021 367.293518,640.633301 
	C418.422394,636.340149 465.394196,619.501221 508.511505,590.531616 
	C504.779175,587.510803 501.032562,586.556519 496.871582,584.726135 
z"/>
<path fill="#000000" opacity="1.000000" stroke="none" 
	d="
M586.856934,350.955505 
	C592.588196,351.583588 597.864502,352.258484 603.158875,352.730652 
	C605.723022,352.959351 607.265686,353.860687 607.137878,356.670654 
	C607.009827,359.486267 605.390808,360.423065 602.815125,360.165680 
	C598.086609,359.693146 593.360168,359.200409 587.588379,358.609070 
	C593.213196,362.744232 597.929626,366.362610 602.812256,369.740662 
	C605.461243,371.573334 606.032043,373.870483 605.094727,376.657990 
	C604.084717,379.661499 601.493103,379.136810 599.203064,378.885864 
	C591.935303,378.089386 584.681702,377.161560 577.412170,376.382629 
	C574.833679,376.106354 573.411072,375.102600 573.674072,372.278656 
	C573.955200,369.260162 575.890991,368.948883 578.289734,369.207031 
	C582.367004,369.645874 586.445862,370.069427 591.963440,370.651184 
	C586.873779,366.895630 583.009399,363.844788 578.936768,361.103302 
	C575.778259,358.977142 574.319580,356.558533 575.675415,352.714600 
	C577.057495,348.796112 580.025452,350.787109 582.423340,350.699066 
	C583.747559,350.650421 585.080444,350.837921 586.856934,350.955505 
z"/>
<path fill="#000000" opacity="1.000000" stroke="none" 
	d="
M115.807861,271.704407 
	C115.477531,272.713470 115.297943,273.354065 115.089928,273.985260 
	C112.841248,280.808746 112.723633,280.842957 106.027153,278.661438 
	C99.705933,276.602173 93.358025,274.624908 87.027534,272.593872 
	C84.489090,271.779449 82.435356,270.874237 83.505867,267.330994 
	C84.597153,263.718964 86.826920,264.242279 89.344009,265.061646 
	C93.451614,266.398773 97.508690,267.898102 101.641266,269.150146 
	C109.779526,271.615814 109.917191,271.485016 111.780586,262.126221 
	C105.417038,260.031525 98.987663,257.927490 92.567749,255.794922 
	C90.473816,255.099365 88.251747,254.406479 88.891228,251.439438 
	C89.470703,248.750778 90.274101,246.784561 93.919647,248.192154 
	C98.712860,250.042892 103.724907,251.333130 108.659286,252.809433 
	C111.268219,253.589981 113.534546,254.297089 116.681152,253.314270 
	C120.221405,252.208527 124.239418,254.597260 127.008919,257.117584 
	C129.005569,258.934601 127.079483,262.316650 125.105019,261.818298 
	C116.963837,259.763458 117.998451,266.362457 116.227196,270.375183 
	C116.094101,270.676697 116.037552,271.011993 115.807861,271.704407 
z"/>
<path fill="#000000" opacity="1.000000" stroke="none" 
	d="
M516.420532,143.168365 
	C513.125244,146.893539 510.054810,150.329102 506.310577,154.518661 
	C512.788269,154.334198 517.424011,151.506119 522.437195,150.199036 
	C525.809265,149.319855 528.328064,149.613724 530.254578,152.551804 
	C532.285400,155.649139 529.417786,157.062119 527.869995,158.767349 
	C523.062073,164.064362 518.127502,169.246201 513.258972,174.488419 
	C511.681152,176.187347 510.187592,177.623688 507.855255,175.430099 
	C505.561157,173.272430 506.147949,171.464111 508.080475,169.495132 
	C510.860535,166.662598 513.540466,163.731827 516.988342,160.073486 
	C510.709900,160.515503 505.972748,162.835495 501.023773,164.247025 
	C498.871277,164.860947 496.983734,165.323822 495.001556,163.555466 
	C492.441620,161.271606 491.688354,159.397171 494.458527,156.569016 
	C499.810333,151.105255 504.859436,145.345444 510.052307,139.725250 
	C511.147919,138.539520 512.188843,136.699905 514.121094,137.740082 
	C516.006226,138.754883 517.925232,140.134644 516.420532,143.168365 
z"/>
<path fill="#000000" opacity="1.000000" stroke="none" 
	d="
M479.026764,124.037758 
	C480.346466,122.088379 481.466919,120.435921 482.582336,118.780037 
	C483.954376,116.743134 485.459045,115.559998 487.872589,117.493149 
	C490.172272,119.335075 489.555481,121.117737 488.136078,123.106758 
	C485.646423,126.595444 483.238281,130.142258 481.407135,134.503891 
	C486.326172,132.353699 491.341034,130.393921 496.129333,127.983971 
	C499.141541,126.467934 501.508972,126.684410 503.752441,129.061951 
	C506.329346,131.792862 503.843811,133.538757 502.455017,135.482452 
	C498.196167,141.442917 493.917725,147.389420 489.676056,153.362061 
	C488.427521,155.120056 487.218842,156.591919 484.835388,154.923187 
	C482.529358,153.308685 482.556244,151.564468 484.086578,149.414413 
	C486.475525,146.058060 488.744202,142.616104 490.561157,138.446899 
	C485.757812,140.503647 480.842621,142.339462 476.190613,144.695007 
	C473.102661,146.258606 470.875153,145.786285 468.672821,143.402054 
	C466.205597,140.731033 468.313995,138.852249 469.737030,136.869949 
	C472.746979,132.677048 475.793671,128.510513 479.026764,124.037758 
z"/>
<path fill="#000000" opacity="1.000000" stroke="none" 
	d="
M261.603485,98.353378 
	C260.531494,95.491188 259.636810,92.981201 258.634674,90.514862 
	C257.662445,88.122108 257.934265,86.333824 260.616333,85.332901 
	C263.309692,84.327774 264.788727,85.657654 265.625885,87.944336 
	C266.882812,91.377640 267.786926,94.949081 269.183533,98.319901 
	C270.789124,102.195030 271.430542,106.417664 275.326355,109.365929 
	C278.045319,111.423538 278.256805,115.566475 279.028595,118.956024 
	C279.371613,120.462761 278.279999,121.405510 276.889221,121.894814 
	C275.201691,122.488518 273.759308,122.034958 273.239532,120.346550 
	C271.993591,116.299377 269.493713,116.537056 266.282928,117.805435 
	C262.729126,119.209312 259.008209,120.188026 255.444534,121.569794 
	C252.611694,122.668190 251.194778,121.852409 250.228363,119.016434 
	C247.655350,111.465927 244.884109,103.982643 242.158646,96.484642 
	C241.227310,93.922493 241.432648,91.916649 244.391693,90.925209 
	C247.274628,89.959259 248.310242,91.774353 249.089935,93.973495 
	C251.035721,99.461594 253.102921,104.912910 254.830002,110.469566 
	C255.642578,113.083878 256.693054,114.119576 259.440063,113.075378 
	C262.049683,112.083397 265.455627,111.856171 264.540619,107.771622 
	C263.852631,104.700493 262.686859,101.736412 261.603485,98.353378 
z"/>
<path fill="#000000" opacity="1.000000" stroke="none" 
	d="
M160.615891,172.386047 
	C156.522614,168.231308 152.686722,164.314651 148.839127,160.409500 
	C147.096741,158.641068 146.478027,156.954285 148.533508,154.859085 
	C150.778839,152.570358 152.312241,153.838593 153.920746,155.549652 
	C157.175858,159.012253 160.439560,162.466782 164.573563,166.851456 
	C162.970642,159.401657 161.827133,153.237961 160.264679,147.182388 
	C159.479706,144.140060 160.752472,142.355621 162.904221,140.866501 
	C165.409729,139.132568 166.466034,141.616196 167.730804,142.904663 
	C172.965088,148.237015 178.128571,153.639999 183.255585,159.075943 
	C184.929611,160.850845 186.264542,162.784271 183.804199,165.052505 
	C181.108185,167.538025 179.654312,165.232437 178.098511,163.589218 
	C175.618011,160.969360 173.223801,158.267807 170.793106,155.600800 
	C170.399612,155.881363 170.006119,156.161942 169.612625,156.442505 
	C170.537476,161.398178 171.210587,166.419022 172.471329,171.287704 
	C173.386948,174.823517 172.287186,177.281708 169.438400,178.857452 
	C166.494003,180.486099 165.552109,177.283585 163.940002,175.894653 
	C162.814056,174.924576 161.885315,173.725586 160.615891,172.386047 
z"/>
<path fill="#000000" opacity="1.000000" stroke="none" 
	d="
M150.705338,173.265411 
	C154.502930,176.271912 158.035919,179.039261 161.516357,181.871216 
	C163.179214,183.224258 164.354996,184.723053 162.605743,186.924866 
	C160.868591,189.111450 159.219131,189.056107 157.151886,187.302307 
	C153.744202,184.411301 150.187607,181.695862 145.566757,178.006607 
	C147.539124,183.422882 149.067383,187.640549 150.612595,191.852005 
	C151.183990,193.409302 151.876694,194.926529 152.370743,196.506836 
	C153.293274,199.457642 151.256454,201.292862 149.424255,202.858871 
	C147.525528,204.481735 146.060303,202.508530 144.697388,201.452026 
	C139.048233,197.072876 133.451187,192.626343 127.851257,188.184052 
	C127.074539,187.567886 126.302399,186.907791 125.678284,186.145172 
	C124.237892,184.385101 124.831390,182.730484 126.174309,181.229446 
	C127.589417,179.647690 129.050964,179.978424 130.548706,181.175400 
	C134.284653,184.161026 138.042938,187.118744 142.734680,189.501602 
	C140.907318,184.666489 139.072357,179.834229 137.257828,174.994308 
	C136.791626,173.750748 136.296143,172.506165 135.979050,171.221359 
	C135.417480,168.945923 136.844971,167.377640 138.275070,166.011398 
	C139.954895,164.406586 141.314880,165.858337 142.607712,166.868591 
	C145.224487,168.913406 147.816772,170.989563 150.705338,173.265411 
z"/>
<path fill="#000000" opacity="1.000000" stroke="none" 
	d="
M567.161133,245.072556 
	C572.526123,243.142426 577.568359,241.451401 582.493225,239.468796 
	C585.631592,238.205383 587.686462,239.072174 588.903809,242.010849 
	C589.915710,244.453812 590.881531,246.954742 591.487793,249.519806 
	C593.515686,258.099731 588.865601,262.803955 580.175720,260.786133 
	C579.225708,262.158875 578.378845,263.771729 577.175293,265.048309 
	C573.657104,268.779877 567.845947,268.588867 564.392456,264.595856 
	C563.104065,263.106171 562.119385,261.318054 561.181763,259.566620 
	C555.957581,249.807999 556.340942,248.866821 567.161133,245.072556 
M572.721985,252.281738 
	C571.176086,251.563232 569.868958,252.406418 568.541138,252.962372 
	C566.547913,253.796951 565.701965,255.228348 566.851990,257.238037 
	C567.918396,259.101501 569.535889,260.280731 571.733582,259.196075 
	C574.765564,257.699615 574.962830,255.386841 572.721985,252.281738 
M581.308289,253.376343 
	C583.259338,254.104797 584.929565,253.945633 585.560669,251.647018 
	C585.916687,250.350418 585.715515,248.932632 584.545471,248.085312 
	C583.045166,246.998795 581.688538,248.076172 580.548584,248.882385 
	C578.663147,250.215805 579.456482,251.655823 581.308289,253.376343 
z"/>
<path fill="#000000" opacity="1.000000" stroke="none" 
	d="
M351.138977,78.391342 
	C351.187378,86.172592 351.179596,93.497986 351.279327,100.821907 
	C351.317780,103.646149 350.782776,105.910942 347.357483,105.875023 
	C344.028259,105.840111 343.932983,103.354958 343.861877,100.933929 
	C343.837433,100.102058 343.819702,99.268936 343.836090,98.437119 
	C343.897186,95.337616 344.233887,92.471367 339.356445,92.813301 
	C335.283478,93.098839 332.421448,93.597252 333.086792,98.623764 
	C333.280853,100.089905 333.173492,101.627701 332.986572,103.105095 
	C332.705963,105.322624 331.176544,106.124832 329.087372,106.090645 
	C327.130493,106.058617 325.905640,105.138908 325.782715,103.129471 
	C325.254425,94.493935 324.568481,85.862373 324.857910,77.198158 
	C324.945648,74.571976 326.369690,73.197723 328.976440,73.251915 
	C331.554504,73.305519 332.113800,75.080276 332.417084,77.289185 
	C332.871643,80.600258 331.497803,85.083221 337.526001,85.011932 
	C343.313690,84.943497 343.746582,84.719254 343.420074,78.867020 
	C343.280243,76.360535 342.791931,73.520088 346.351593,73.045753 
	C349.888519,72.574440 351.000336,74.867966 351.138977,78.391342 
z"/>
<path fill="#000000" opacity="1.000000" stroke="none" 
	d="
M317.592896,83.688713 
	C322.213745,94.891357 319.482025,103.482239 310.467346,107.587975 
	C305.815521,109.706665 301.484070,109.334534 297.176270,106.799217 
	C291.868988,103.675652 288.793030,95.945686 289.909546,88.421547 
	C290.850006,82.084045 295.055328,77.427948 301.187805,75.934410 
	C307.987946,74.278275 313.444061,76.771210 317.592896,83.688713 
M301.460114,82.770264 
	C296.643402,86.782928 295.810333,94.946228 299.751678,99.511139 
	C302.288483,102.449287 307.574707,102.890282 309.905640,99.968796 
	C312.997833,96.093231 312.464600,91.481918 310.842224,87.273392 
	C309.426147,83.600006 306.467529,81.510201 301.460114,82.770264 
z"/>
<path fill="#000000" opacity="1.000000" stroke="none" 
	d="
M103.213997,309.858826 
	C107.676819,315.449860 106.442993,321.477692 105.702095,327.403656 
	C105.469009,329.267975 104.202965,330.429291 102.233124,330.271912 
	C93.775757,329.596039 85.321457,328.877686 76.872307,328.106323 
	C74.824661,327.919342 74.144005,326.334656 74.053276,324.550385 
	C73.892899,321.396210 73.721924,318.251129 74.778389,315.154114 
	C77.750488,306.441437 82.255821,304.909637 90.008537,310.536652 
	C93.888786,307.076111 98.260239,305.061768 103.213997,309.858826 
M97.478455,322.710999 
	C100.702827,322.860596 100.983330,320.811127 100.539726,318.425323 
	C100.153893,316.350220 98.683189,315.309418 96.623077,315.307617 
	C93.789551,315.305145 92.986580,317.552521 92.679138,319.661804 
	C92.236610,322.697876 94.826042,322.382874 97.478455,322.710999 
M83.006065,321.171112 
	C84.736397,321.497284 86.519218,321.663422 86.529625,319.206360 
	C86.536659,317.545776 85.973267,315.888855 84.094429,315.346954 
	C82.715355,314.949219 81.386902,315.307434 80.762520,316.696594 
	C79.934921,318.537811 79.949829,320.238892 83.006065,321.171112 
z"/>
<path fill="#000000" opacity="1.000000" stroke="none" 
	d="
M575.967773,214.999054 
	C575.630066,217.016129 574.354004,217.828323 573.053528,218.591080 
	C566.309570,222.546692 559.540833,226.460266 552.817322,230.450134 
	C550.824829,231.632477 549.168579,231.976257 547.794067,229.607864 
	C546.514282,227.402740 546.530945,225.523468 548.821228,224.016632 
	C549.377319,223.650772 549.927795,223.276260 550.489197,222.918793 
	C557.844421,218.235397 557.879150,217.756714 551.115662,210.503494 
	C548.595703,211.854538 545.954956,213.189453 543.397827,214.668762 
	C541.600281,215.708633 540.071350,216.203125 538.810913,213.949402 
	C537.648560,211.870895 536.990845,209.943085 539.569092,208.401581 
	C546.990723,203.964172 554.402527,199.510376 561.830566,195.083755 
	C563.866516,193.870468 564.923279,195.322449 565.837830,196.757996 
	C566.847656,198.343124 567.805603,200.065964 565.700317,201.552368 
	C564.344604,202.509476 562.929810,203.409943 561.453796,204.164093 
	C558.361084,205.744293 558.417542,207.581436 559.881104,210.602844 
	C561.976379,214.928421 564.268677,215.501862 567.857910,212.574890 
	C571.432983,209.659409 574.409729,209.419449 575.967773,214.999054 
z"/>
<path fill="#000000" opacity="1.000000" stroke="none" 
	d="
M456.435608,133.425812 
	C457.246643,131.747284 457.741394,130.269043 458.642975,129.106293 
	C461.560760,125.343430 460.568481,123.248726 456.413208,121.148117 
	C452.846710,119.345131 450.906036,119.961700 449.326050,123.306198 
	C448.687256,124.658463 447.955719,125.967499 447.334137,127.327194 
	C446.292084,129.606598 444.725922,130.243805 442.533234,128.920029 
	C440.655151,127.786179 439.406464,126.377182 440.656281,124.014465 
	C444.545929,116.661247 448.406067,109.292297 452.324677,101.954582 
	C453.310455,100.108658 454.461212,98.509125 457.020233,99.876549 
	C459.546814,101.226608 460.301178,103.006187 458.928558,105.600853 
	C457.849213,107.641106 456.818268,109.706963 455.874725,111.548836 
	C456.805420,113.881561 458.825287,114.116272 460.291412,115.106628 
	C463.573425,117.323532 465.820557,116.579529 467.233459,112.923050 
	C467.591705,111.995888 468.086212,111.117928 468.558105,110.238823 
	C469.676636,108.155022 471.167725,107.388542 473.464508,108.632179 
	C475.781982,109.887024 476.552856,111.418480 475.210571,113.900871 
	C471.413788,120.922462 467.725098,128.002502 463.936340,135.028488 
	C463.166077,136.456879 462.372040,138.357544 460.354767,137.939133 
	C458.256836,137.503967 456.093567,136.664963 456.435608,133.425812 
z"/>
<path fill="#000000" opacity="1.000000" stroke="none" 
	d="
M96.673569,357.530914 
	C91.297203,359.031494 93.274506,363.055908 93.614944,365.932892 
	C93.968567,368.921234 96.977547,367.810059 98.997223,367.822174 
	C100.315720,367.830017 101.634300,367.515564 102.955917,367.374176 
	C105.730286,367.077393 106.889221,368.663605 107.200867,371.127838 
	C107.502563,373.513428 106.565842,374.966797 104.022438,375.180847 
	C95.915878,375.863190 87.812225,376.580231 79.705093,377.255615 
	C77.393974,377.448181 75.851952,376.673096 75.683624,374.036560 
	C75.511154,371.335236 76.668831,369.963135 79.361320,369.860107 
	C79.859688,369.841034 80.357986,369.812134 80.855286,369.774261 
	C86.972061,369.308594 87.687859,368.375977 86.421631,362.369904 
	C86.187424,361.259033 85.761086,360.188721 85.342697,358.839294 
	C82.913162,358.953613 80.624756,359.008209 78.345497,359.182495 
	C75.728600,359.382599 74.226814,358.339020 73.958931,355.648499 
	C73.672195,352.768677 75.240356,351.953186 77.809891,351.714966 
	C85.418861,351.009644 93.015640,350.166260 100.609863,349.311859 
	C103.316086,349.007355 105.152504,349.533936 105.422066,352.738159 
	C105.670921,355.696075 104.549706,357.137024 101.563225,357.175903 
	C100.069038,357.195343 98.576721,357.358521 96.673569,357.530914 
z"/>
<path fill="#000000" opacity="1.000000" stroke="none" 
	d="
M198.800293,137.366577 
	C199.481445,140.646484 201.530609,142.912033 203.095535,145.435944 
	C204.438232,147.601456 203.931564,149.143326 202.022156,150.549088 
	C199.904968,152.107849 198.443649,151.470505 197.086151,149.421204 
	C192.493866,142.488541 187.878067,135.569748 183.147049,128.731583 
	C181.330917,126.106560 182.888702,124.860008 184.736359,123.471001 
	C186.671341,122.016342 188.093811,122.501480 189.240738,124.453224 
	C189.325058,124.596703 189.397003,124.748817 189.493149,124.883789 
	C194.788269,132.317245 195.610657,132.343567 202.474167,125.051163 
	C201.199463,123.047050 199.848007,120.988380 198.565460,118.887642 
	C197.217606,116.679977 197.527679,114.846016 199.786499,113.345062 
	C202.099548,111.808067 203.486496,112.971161 204.716583,114.810661 
	C209.154755,121.447586 213.574707,128.096725 218.022644,134.727081 
	C219.574554,137.040436 219.604492,138.960861 217.009293,140.619400 
	C214.308823,142.345200 213.098053,140.528534 211.811554,138.692627 
	C211.716064,138.556366 211.617569,138.422165 211.519974,138.287369 
	C206.344574,131.141129 206.344574,131.141129 198.800293,137.366577 
z"/>
<path fill="#000000" opacity="1.000000" stroke="none" 
	d="
M414.337585,83.687347 
	C416.997986,85.439735 416.419678,87.720871 415.916443,89.757927 
	C414.125732,97.006981 412.133545,104.205986 410.286530,111.441544 
	C409.688263,113.785156 408.785400,115.583855 405.913452,114.931610 
	C402.943665,114.257126 402.389099,112.148628 403.046692,109.576187 
	C404.402466,104.272171 405.904816,99.005646 407.263672,93.702393 
	C407.801544,91.603233 408.472595,89.249519 405.422211,88.427689 
	C402.574585,87.660484 401.535370,89.673592 400.871460,91.845596 
	C399.613861,95.959908 399.041626,100.296188 396.798889,104.084785 
	C394.755432,107.536697 392.168976,110.185753 387.807983,110.242043 
	C386.180359,110.263054 384.837830,109.747955 384.275177,108.073639 
	C383.736603,106.470871 384.173676,104.599426 385.480713,104.078979 
	C392.654633,101.222351 393.036011,94.402321 394.473267,88.512291 
	C397.109802,77.707069 395.671570,78.799843 406.260498,81.482063 
	C408.832397,82.133537 411.392059,82.833473 414.337585,83.687347 
z"/>
<path fill="#000000" opacity="1.000000" stroke="none" 
	d="
M127.913414,213.851471 
	C130.274353,215.734406 132.587570,217.329254 134.937408,218.868210 
	C137.213852,220.359085 137.400177,222.109879 135.968704,224.355148 
	C134.494415,226.667572 132.813766,226.292999 130.895554,225.106766 
	C124.112015,220.911774 117.324036,216.723892 110.527153,212.550552 
	C108.424187,211.259323 107.306961,209.803680 108.856361,207.268280 
	C110.518387,204.548569 112.398224,204.818527 114.673676,206.359085 
	C116.273239,207.442062 117.988831,208.353622 119.829094,209.446518 
	C120.550400,203.138290 111.601936,197.572983 119.810318,191.265289 
	C123.792419,194.978165 123.182274,200.843597 126.285728,205.127975 
	C131.328506,202.692505 136.375168,203.737183 141.405762,204.874802 
	C143.415771,205.329346 146.384995,205.351257 145.530441,208.465164 
	C144.783188,211.188065 143.136002,213.583130 139.334457,212.642242 
	C136.320129,211.896194 133.282181,210.589478 130.058365,211.643555 
	C129.100052,211.956879 128.262238,212.511703 127.913414,213.851471 
z"/>
<path fill="#000000" opacity="1.000000" stroke="none" 
	d="
M365.108765,81.147636 
	C366.504425,77.135155 367.920715,73.769135 372.931580,75.241905 
	C374.626221,75.739983 375.806274,76.413132 376.376923,78.327911 
	C379.037994,87.256996 380.247986,96.478249 382.067047,105.575523 
	C382.355621,107.018799 381.917389,108.335808 380.364319,108.728386 
	C378.683411,109.153275 377.029236,108.807854 375.754852,107.534142 
	C374.525085,106.304955 374.012085,104.687599 373.923431,103.005928 
	C373.761963,99.941513 371.896515,99.321381 369.243805,99.111816 
	C366.592072,98.902344 364.229797,98.620232 363.408875,101.964355 
	C363.214783,102.754906 362.825439,103.525391 362.395813,104.225227 
	C360.861237,106.724831 358.434509,106.741554 356.277832,105.681313 
	C353.976196,104.549812 355.225830,102.579628 355.985168,100.931229 
	C358.970184,94.451241 361.963837,87.975243 365.108765,81.147636 
M368.580841,90.466209 
	C368.832520,91.808853 369.950195,92.847343 370.877258,91.962196 
	C372.593170,90.323830 371.795959,88.323692 370.765381,86.438271 
	C369.174744,87.287186 369.228638,88.741791 368.580841,90.466209 
z"/>
<path fill="#000000" opacity="1.000000" stroke="none" 
	d="
M239.540024,114.473007 
	C241.517731,116.504150 243.271057,118.269150 244.927063,120.121147 
	C246.173782,121.515404 248.456085,122.939095 245.974854,124.968811 
	C243.998444,126.585602 241.686966,127.811249 239.472443,125.094330 
	C237.171570,122.271446 234.750168,120.637985 231.039078,123.137383 
	C229.170975,124.395546 227.906479,125.404991 228.703110,127.853333 
	C229.217850,129.435287 229.391327,131.166580 228.687820,132.739441 
	C227.875519,134.555588 226.203430,135.633270 224.336990,135.577347 
	C222.206116,135.513550 221.996140,133.520599 221.844040,131.856689 
	C221.134415,124.093445 219.750015,116.443176 218.186157,108.814659 
	C217.604401,105.976784 217.462677,103.324516 220.762482,101.578545 
	C224.005905,99.862404 226.304504,100.606140 228.613373,103.118011 
	C232.088562,106.898720 235.712906,110.542328 239.540024,114.473007 
M228.249817,117.427765 
	C232.688141,113.538101 227.238312,113.606384 226.095261,111.930466 
	C226.461746,113.905113 225.061172,116.380051 228.249817,117.427765 
z"/>
<path fill="#000000" opacity="1.000000" stroke="none" 
	d="
M109.763702,296.551483 
	C108.157509,304.334656 108.144730,304.401398 101.032967,303.039520 
	C94.498291,301.788177 88.005768,300.317383 81.473671,299.051666 
	C78.262794,298.429504 76.865440,296.882202 77.651237,293.494904 
	C78.513741,289.776886 79.099022,285.995422 79.869400,282.254852 
	C80.235756,280.476013 81.020874,279.109985 83.255852,279.551819 
	C85.486191,279.992767 86.315521,281.419312 86.068237,283.526581 
	C85.874863,285.174500 85.431625,286.792969 85.236366,288.440765 
	C84.994835,290.479095 85.571541,292.170166 87.893562,292.484680 
	C90.197281,292.796722 90.577148,291.124725 90.862236,289.358673 
	C91.073669,288.048920 91.449677,286.764587 91.774094,285.474396 
	C92.254044,283.565735 92.999107,281.849243 95.447693,282.442261 
	C97.918411,283.040619 98.366135,284.842834 97.911224,287.095764 
	C97.616486,288.555450 97.295975,290.029297 97.218796,291.508850 
	C97.114761,293.503296 98.240952,294.546448 100.212891,294.763672 
	C102.108055,294.972473 103.416946,294.519196 103.861710,292.377777 
	C104.299316,290.270844 105.097137,288.239990 105.562965,286.137238 
	C105.939232,284.438782 106.587906,283.326569 108.554405,283.708984 
	C110.249016,284.038513 111.370071,285.068207 111.202744,286.787994 
	C110.898087,289.919434 110.328827,293.025146 109.763702,296.551483 
z"/>
<path fill="#000000" opacity="1.000000" stroke="none" 
	d="
M598.715210,286.127319 
	C595.349609,286.159210 595.085449,283.908569 594.593018,281.759186 
	C594.154175,279.843781 593.551208,277.966003 592.964600,275.871460 
	C589.070190,275.759064 587.110779,276.997589 588.261780,281.121155 
	C588.617615,282.395966 588.951111,283.690186 589.129578,284.998077 
	C589.359314,286.681396 588.670227,287.928131 586.962830,288.428070 
	C585.013672,288.998779 583.637756,288.177307 583.050659,286.365356 
	C582.291870,284.023621 581.778992,281.602203 581.176941,279.279449 
	C574.476807,279.090515 573.931580,279.728882 575.459045,285.776978 
	C575.743225,286.902283 576.104492,288.008453 576.442322,289.119751 
	C577.064941,291.167725 576.052307,292.308319 574.247681,292.890503 
	C572.583740,293.427277 571.156372,292.942291 570.679932,291.191223 
	C569.375549,286.396973 568.143555,281.579834 567.036133,276.736694 
	C566.561157,274.659607 568.104553,273.680786 569.798462,273.231567 
	C577.973755,271.063507 586.171082,268.978455 594.358826,266.857208 
	C596.176270,266.386322 597.338684,267.228851 597.788635,268.856995 
	C599.023438,273.325409 600.158752,277.822510 601.258789,282.326477 
	C601.710022,284.173950 601.221130,285.636597 598.715210,286.127319 
z"/>
<path fill="#000000" opacity="1.000000" stroke="none" 
	d="
M570.537842,406.294983 
	C578.209900,408.746277 585.479675,411.119354 592.793335,413.348419 
	C595.803162,414.265808 596.858826,416.088226 595.919434,418.996155 
	C594.641724,422.951355 593.270813,426.877777 591.865540,430.789825 
	C591.305237,432.349640 590.289612,433.340851 588.421204,432.670563 
	C586.634460,432.029541 585.558350,430.916748 586.069580,428.906555 
	C586.560669,426.975494 587.188721,425.079498 587.746887,423.165222 
	C588.285095,421.319305 587.987549,420.002228 585.877625,419.290100 
	C583.802246,418.589600 582.724243,419.304596 582.066711,421.190369 
	C581.519287,422.760376 580.845947,424.292450 580.395203,425.888458 
	C579.935730,427.515503 579.232178,428.708282 577.313049,428.333893 
	C575.349426,427.950775 574.480103,426.611847 574.752747,424.697998 
	C574.985779,423.061493 575.381653,421.432129 575.875916,419.852936 
	C576.493591,417.879578 576.596497,416.259430 574.169800,415.499176 
	C571.938354,414.800171 570.171692,415.243561 569.253418,417.513916 
	C568.508545,419.355499 567.901733,421.259430 567.341370,423.167328 
	C566.748596,425.185516 565.471069,425.827301 563.547607,425.224945 
	C561.638550,424.627106 560.862000,423.228699 561.428345,421.346008 
	C562.720154,417.052216 564.093872,412.781525 565.521667,408.530823 
	C566.263916,406.321136 567.746521,405.263641 570.537842,406.294983 
z"/>
<path fill="#000000" opacity="1.000000" stroke="none" 
	d="
M119.559723,249.802414 
	C112.111496,246.338882 105.053520,242.967438 97.931870,239.736343 
	C95.437683,238.604721 94.075279,237.286942 95.392029,234.383316 
	C96.761139,231.364227 98.931068,231.632629 101.124794,232.990967 
	C104.920448,235.341202 107.095146,234.511551 109.354080,230.540573 
	C112.348595,225.276505 117.055473,223.755600 121.571404,225.481155 
	C127.073059,227.583359 129.234177,231.848022 128.360901,238.345245 
	C127.853584,242.119781 125.816864,245.166473 124.137283,248.401123 
	C123.212349,250.182419 121.742950,250.559052 119.559723,249.802414 
M118.341171,240.930328 
	C121.408592,242.120041 121.691063,239.977295 121.881157,237.889999 
	C122.121704,235.248657 121.094109,233.013199 118.354645,232.810287 
	C115.093666,232.568726 113.408859,234.729889 112.745575,238.076370 
	C114.523453,239.002655 116.113815,239.831238 118.341171,240.930328 
z"/>
<path fill="#000000" opacity="1.000000" stroke="none" 
	d="
M429.943848,88.871422 
	C432.672241,90.855972 431.425568,92.869957 430.556976,94.837875 
	C429.225281,97.854935 429.473267,99.796425 432.994446,101.480858 
	C439.512573,104.598984 441.722137,109.918427 439.536987,115.249649 
	C437.065918,121.278313 431.728607,123.509209 424.598053,121.476791 
	C423.799744,121.249252 423.017487,120.956566 422.243439,120.654121 
	C414.106110,117.474586 414.187531,117.505341 417.503357,109.412552 
	C419.961578,103.412872 422.269806,97.346870 424.455994,91.242767 
	C425.431244,88.519760 426.744019,87.238876 429.943848,88.871422 
M430.161316,107.410538 
	C425.888519,106.177757 424.325073,108.011795 424.419434,114.146240 
	C428.558777,115.316582 430.346954,115.179077 431.659119,113.471252 
	C433.340912,111.282372 432.398254,109.484299 430.161316,107.410538 
z"/>
<path fill="#000000" opacity="1.000000" stroke="none" 
	d="
M97.418198,430.547302 
	C90.031593,432.890900 90.059113,432.881775 87.762299,425.946167 
	C86.928719,423.428986 85.838638,420.995636 85.032951,418.470642 
	C84.368904,416.389587 84.567337,414.442749 87.008461,413.570801 
	C89.505417,412.678925 90.216530,414.619293 90.928398,416.286316 
	C91.896492,418.553345 92.709572,420.886536 93.503227,422.966248 
	C95.700844,423.724854 96.994591,422.609772 98.408211,422.041168 
	C98.804344,419.320892 97.375816,417.313568 96.806747,415.107544 
	C96.345657,413.320129 95.572212,411.587921 98.177727,410.635986 
	C100.688454,409.718689 101.919960,410.907532 102.810219,412.958710 
	C103.206551,413.871826 103.681778,414.783600 103.875954,415.745483 
	C104.488335,418.778839 105.871254,419.938293 109.128059,418.872864 
	C112.584236,417.742188 111.117424,415.742371 110.503830,413.760651 
	C110.013153,412.175842 109.519913,410.591736 109.042206,409.003021 
	C108.468643,407.095490 109.153030,405.751556 110.948021,404.982361 
	C112.949554,404.124664 114.262154,405.137054 114.862770,406.875244 
	C116.432648,411.418671 117.929054,415.994202 119.237366,420.618439 
	C119.896248,422.947235 118.143089,423.739105 116.238594,424.349182 
	C110.076797,426.323090 103.943321,428.385437 97.418198,430.547302 
z"/>
<path fill="#000000" opacity="1.000000" stroke="none" 
	d="
M603.608521,295.839722 
	C604.199646,300.621338 605.983215,304.877899 604.526855,309.477661 
	C603.216736,313.615784 600.742188,315.989319 596.432495,316.426910 
	C592.059082,316.870941 588.548218,315.587616 586.485718,311.428131 
	C586.190247,310.832184 585.753967,310.265015 585.623779,309.634766 
	C584.649536,304.916443 581.954102,303.106873 577.173706,304.230042 
	C574.624084,304.829071 572.443176,304.222382 572.073730,301.095673 
	C571.704590,297.972046 573.723755,297.103577 576.302673,296.751953 
	C583.873047,295.719788 591.442261,294.677551 599.002563,293.574799 
	C600.937317,293.292572 602.706055,293.084198 603.608521,295.839722 
M598.806946,305.211639 
	C598.941528,301.871796 596.619629,302.044434 594.398743,302.186676 
	C592.945984,302.279755 591.163513,302.114777 590.664612,303.931122 
	C590.173889,305.717438 591.149414,307.266266 592.589050,308.170410 
	C594.502075,309.371796 596.410522,308.930023 597.947693,307.257050 
	C598.270813,306.905396 598.422852,306.396423 598.806946,305.211639 
z"/>
<path fill="#000000" opacity="1.000000" stroke="none" 
	d="
M79.548126,398.142273 
	C78.247627,393.319519 78.446556,389.159698 81.856567,385.686676 
	C87.129913,380.315796 95.932251,382.271301 98.756805,389.880371 
	C100.282753,393.991058 101.988846,395.690338 106.302132,393.985779 
	C108.838600,392.983398 111.264336,392.925690 112.036697,396.450989 
	C112.784256,399.863007 110.761749,400.728546 107.981171,401.293762 
	C102.134277,402.482300 96.346657,403.962769 90.498993,405.147095 
	C82.072266,406.853821 82.058723,406.786926 79.548126,398.142273 
M92.505646,391.792511 
	C90.284874,389.880432 88.045242,389.661621 86.110634,392.070740 
	C84.884399,393.597748 84.566841,395.715332 86.074348,397.004150 
	C88.302567,398.909058 90.896049,397.262939 93.006538,396.422028 
	C95.325203,395.498230 93.574577,393.719116 92.505646,391.792511 
z"/>
<path fill="#000000" opacity="1.000000" stroke="none" 
	d="
M101.579559,455.774841 
	C104.356087,454.209290 106.926033,453.018433 109.357315,451.591309 
	C111.956375,450.065704 112.369545,447.886871 110.935722,445.203125 
	C109.439819,442.403229 107.523567,442.617157 105.143013,443.954132 
	C103.409821,444.927582 101.511467,445.602142 99.719170,446.476440 
	C97.570702,447.524475 95.948189,447.310059 94.831802,444.934265 
	C93.809967,442.759735 94.022003,441.025024 96.299957,439.969879 
	C103.991798,436.407043 111.700096,432.879089 119.428131,429.395569 
	C121.677238,428.381714 122.770866,429.746155 123.594612,431.643585 
	C124.463943,433.645966 124.218712,435.114197 122.121353,436.176819 
	C119.928856,437.287628 117.354538,437.770782 115.701569,439.878448 
	C115.512093,442.064423 117.214653,443.504883 117.836754,445.362518 
	C119.845695,451.361450 118.079437,455.721191 112.371284,458.582031 
	C110.885536,459.326660 109.355751,459.984650 107.837494,460.662964 
	C102.638878,462.985657 101.214043,461.974915 101.579559,455.774841 
z"/>
<path fill="#000000" opacity="1.000000" stroke="none" 
	d="
M548.231689,193.323074 
	C542.994507,194.567825 538.180786,195.873535 533.297607,196.820557 
	C529.257812,197.604004 525.727600,196.262146 523.057983,193.081528 
	C521.806580,191.590622 521.133179,189.863739 522.850830,188.200760 
	C524.214294,186.880676 525.700745,186.613708 527.283936,187.936386 
	C531.323364,191.311111 533.221680,189.043961 535.145447,185.312393 
	C538.009155,179.757614 540.077759,173.742172 543.891235,168.675873 
	C548.986755,171.991180 549.387451,173.630646 546.640320,178.421036 
	C545.165405,180.992950 543.458191,183.463623 542.625732,186.831146 
	C546.507996,186.785004 549.750061,185.053955 553.151794,184.179810 
	C555.447632,183.589844 557.003235,184.140045 558.425110,185.821014 
	C560.275879,188.009048 560.254028,189.642899 557.188721,190.557785 
	C554.323669,191.412888 551.478821,192.335770 548.231689,193.323074 
z"/>
<path fill="#000000" opacity="1.000000" stroke="none" 
	d="
M580.093262,325.036316 
	C587.330750,319.913177 594.088196,319.582428 600.806702,323.787140 
	C606.004211,327.039978 609.329956,335.197235 608.016174,341.749939 
	C607.593750,343.856628 607.110962,346.317688 604.131531,345.928589 
	C601.117920,345.535004 600.510559,343.473419 601.223938,340.774719 
	C602.318176,336.635162 601.247559,333.054291 597.674561,330.735413 
	C593.920410,328.298981 589.738342,328.414246 585.829773,330.471375 
	C581.867310,332.556946 581.473938,336.433136 581.572510,340.384766 
	C581.588806,341.039459 581.796082,341.691376 581.933411,342.340668 
	C582.328125,344.205841 582.008972,345.689850 579.830078,346.069885 
	C577.633240,346.453033 576.282654,345.424408 575.843750,343.320618 
	C574.468079,336.727844 574.542847,330.427765 580.093262,325.036316 
z"/>
<path fill="#000000" opacity="1.000000" stroke="none" 
	d="
M574.628052,387.525879 
	C580.544006,388.694397 586.117676,389.588470 591.579163,390.937195 
	C594.751221,391.720581 596.206299,390.729187 596.973633,387.764862 
	C597.465759,385.863800 597.991577,383.619293 600.808655,384.264160 
	C603.737549,384.934601 603.596069,387.381561 603.184998,389.468140 
	C602.097229,394.989624 600.748962,400.460144 599.483154,405.946014 
	C599.022095,407.943848 598.029846,409.389252 595.680420,408.771698 
	C593.579651,408.219543 592.566284,406.804321 593.319946,404.648132 
	C594.848206,400.275635 592.344849,399.205780 588.771790,398.523682 
	C583.731140,397.561462 578.754272,396.268677 573.739929,395.163513 
	C571.653076,394.703583 569.738037,394.009552 569.952454,391.428864 
	C570.159302,388.939514 570.922363,386.734589 574.628052,387.525879 
z"/>
<path fill="#000000" opacity="1.000000" stroke="none" 
	d="
M574.907410,449.599670 
	C569.015198,446.908020 563.394714,444.412872 557.786743,441.889923 
	C555.580994,440.897644 553.410828,439.927429 554.904297,436.741852 
	C556.291565,433.783020 558.141235,433.588654 560.930969,434.915985 
	C567.053101,437.828705 573.300903,440.477112 579.315125,443.152344 
	C581.381165,441.817139 581.337097,439.744202 582.294861,438.240082 
	C583.412720,436.484619 584.849731,436.267120 586.573242,437.117065 
	C588.147827,437.893616 588.788818,439.180786 588.061401,440.824585 
	C585.506042,446.598907 582.888123,452.345581 580.278625,458.095856 
	C579.568115,459.661530 578.419556,460.447113 576.677856,459.780273 
	C574.807068,459.064087 574.367798,457.635529 574.669983,455.750946 
	C574.985779,453.781311 577.278870,451.961060 574.907410,449.599670 
z"/>
<path fill="#000000" opacity="1.000000" stroke="none" 
	d="
M94.952286,335.870331 
	C97.431244,335.897400 99.419479,335.943939 101.407639,335.940430 
	C104.088020,335.935730 105.281662,337.235168 105.300537,339.923309 
	C105.319099,342.566345 104.288086,343.945831 101.534798,343.990723 
	C93.412567,344.123077 85.302803,343.927155 77.201813,343.312775 
	C74.716621,343.124268 73.720894,341.745239 73.781601,339.375488 
	C73.844963,336.902252 75.133202,335.815796 77.560417,335.831787 
	C83.193954,335.868927 88.827805,335.858612 94.952286,335.870331 
z"/>
<path fill="#000000" opacity="1.000000" stroke="none" 
	d="
M566.510132,238.566833 
	C563.483582,240.020508 560.787659,241.290512 558.116150,242.609802 
	C556.132568,243.589371 554.622437,243.206375 553.550964,241.224472 
	C552.468018,239.221344 552.321716,237.152176 554.532471,236.066269 
	C562.403076,232.200333 570.344299,228.472733 578.331238,224.852585 
	C580.655212,223.799225 581.482300,225.933517 582.353760,227.506256 
	C583.467896,229.517090 582.845459,230.992020 580.815491,231.934723 
	C576.162720,234.095535 571.506226,236.248306 566.510132,238.566833 
z"/>
<path fill="#000000" opacity="1.000000" stroke="none" 
	d="
M280.192169,81.690964 
	C284.166656,90.587685 284.930206,99.958527 287.397308,108.890472 
	C288.014587,111.125267 286.294617,112.031929 284.248352,112.479156 
	C282.193512,112.928238 281.149170,112.319511 280.648987,110.255180 
	C278.696198,102.195396 276.564911,94.178047 274.680145,86.102875 
	C273.647156,81.677032 275.717529,80.239243 280.192169,81.690964 
z"/>
<path fill="#000000" opacity="1.000000" stroke="none" 
	d="
M148.556152,150.964661 
	C145.451935,147.030258 146.143356,145.824402 151.519440,145.053909 
	C151.729553,144.810425 152.097702,144.574310 152.115250,144.314514 
	C152.243240,142.418518 152.551346,140.644882 154.628357,139.880783 
	C156.039444,139.361664 156.810532,140.230286 157.428116,141.296967 
	C158.585648,143.296234 158.166626,145.257095 156.806839,146.865616 
	C154.771774,149.272995 152.667465,151.792877 148.556152,150.964661 
z"/>
<path fill="#000000" opacity="1.000000" stroke="none" 
	d="
M531.072876,145.205505 
	C529.129761,149.412323 526.293457,148.583084 523.677856,146.679077 
	C520.861450,144.628815 518.956055,141.851868 520.472717,138.138824 
	C521.399170,135.870590 523.131531,136.302460 524.301575,137.868881 
	C525.138550,138.989365 525.379333,140.555161 525.924255,142.024933 
	C527.856445,142.460205 530.341125,142.074463 531.072876,145.205505 
z"/>
<path fill="#000000" opacity="1.000000" stroke="none" 
	d="
M275.766724,239.072845 
	C275.768829,237.584854 275.850128,236.578415 275.759247,235.587784 
	C275.352936,231.161972 276.687469,228.639099 281.785553,228.823257 
	C287.857208,229.042572 288.999725,229.738190 289.015015,235.608612 
	C289.074860,258.589111 289.039490,281.569824 289.058289,304.550476 
	C289.063446,310.846893 290.660309,311.954712 296.551849,309.852600 
	C302.443634,307.750397 304.903839,303.944916 304.906281,296.686340 
	C304.918701,259.717346 304.906769,222.748352 304.903381,185.779358 
	C304.903259,184.447159 304.962402,183.111832 304.892029,181.783356 
	C304.694214,178.047714 306.254700,176.029556 310.164093,176.411133 
	C313.662292,176.752609 317.981506,175.233673 317.953735,181.677460 
	C317.785065,220.810120 318.105713,259.945923 317.761078,299.076263 
	C317.635559,313.329407 306.688782,323.184937 292.522888,323.289612 
	C289.026093,323.315460 285.507751,323.034027 282.036865,323.331543 
	C277.178894,323.747955 275.679810,321.721130 275.707855,316.996246 
	C275.861145,291.185516 275.772247,265.373352 275.766724,239.072845 
z"/>
<path fill="#000000" opacity="1.000000" stroke="none" 
	d="
M376.110291,270.000000 
	C376.111664,279.664795 376.029114,288.830688 376.145782,297.994049 
	C376.226562,304.339600 379.389313,308.352783 385.288696,310.107300 
	C390.511841,311.660797 391.876801,310.653076 391.880005,305.162109 
	C391.893494,282.166504 391.879028,259.170837 391.906799,236.175278 
	C391.915039,229.362106 392.634277,228.921921 399.348907,228.810287 
	C404.061737,228.731934 405.312042,230.851883 405.293457,235.195877 
	C405.176666,262.523590 405.170166,289.852356 405.297974,317.179962 
	C405.318604,321.592407 404.030853,323.731262 399.311920,323.366852 
	C395.667236,323.085388 391.983643,323.341187 388.318420,323.287140 
	C374.179993,323.078613 363.363434,313.091248 363.260651,298.846527 
	C363.029816,266.860168 362.629822,234.867416 363.480408,202.879959 
	C363.666382,195.886093 363.614166,188.883209 363.531555,181.886139 
	C363.495544,178.834305 363.301697,176.282654 367.727051,176.371185 
	C375.689941,176.530502 376.039124,176.511963 376.074249,182.016495 
	C376.144470,193.013977 376.113922,204.012115 376.115479,215.009995 
	C376.118073,233.173325 376.113129,251.336670 376.110291,270.000000 
z"/>
<path fill="#000000" opacity="1.000000" stroke="none" 
	d="
M340.000061,377.787537 
	C346.332214,377.790802 352.176361,377.568115 357.992828,377.873016 
	C362.478271,378.108154 363.741364,376.311554 363.655243,372.035614 
	C363.427582,360.729980 363.837067,349.408356 363.470642,338.110016 
	C363.282379,332.306335 366.658478,332.811218 370.509460,332.585632 
	C374.735016,332.338135 376.157715,334.056000 376.148224,338.066132 
	C376.076111,368.560059 376.124298,399.054291 376.063080,429.548248 
	C376.052185,434.985809 375.213135,435.213654 368.200592,435.333038 
	C363.304932,435.416382 363.477448,432.678131 363.524078,429.203705 
	C363.669342,418.374298 363.483429,407.540100 363.665497,396.711761 
	C363.732208,392.743805 362.588348,390.996368 358.287140,391.078400 
	C346.626953,391.300873 334.957397,391.282715 323.296509,391.077423 
	C319.100586,391.003540 317.774994,392.608246 317.818970,396.649445 
	C317.938507,407.640533 317.538574,418.639679 317.783020,429.625885 
	C317.902100,434.977692 315.183655,435.271637 310.967682,435.376953 
	C306.286194,435.493866 304.856812,433.718689 304.872375,429.261139 
	C304.977692,399.100677 304.988922,368.939331 304.845612,338.779144 
	C304.822418,333.908569 306.689056,332.562225 311.379425,332.529938 
	C315.962860,332.498383 318.090790,333.490509 317.974976,338.524658 
	C317.718262,349.683167 318.015076,360.853607 317.830627,372.014954 
	C317.761383,376.204041 318.971802,378.151459 323.507568,377.876282 
	C328.820648,377.553925 334.167755,377.793121 340.000061,377.787537 
z"/>
<path fill="#000000" opacity="1.000000" stroke="none" 
	d="
M430.692017,377.528809 
	C436.123291,377.667511 441.123199,377.620392 446.111664,377.837158 
	C449.582947,377.987976 450.794434,376.572937 450.756073,373.139313 
	C450.627777,361.646912 450.703156,350.152008 450.737122,338.658173 
	C450.754608,332.735657 450.998962,332.820831 458.649445,332.551605 
	C463.368683,332.385529 463.211029,335.181915 463.207703,338.342957 
	C463.187927,356.999664 463.290070,375.657013 463.168457,394.312958 
	C463.018158,417.368103 444.081268,436.147705 421.057709,436.252045 
	C414.894440,436.279968 408.726868,436.118805 402.568695,436.298462 
	C396.722992,436.469055 398.090790,432.306793 397.891296,429.023438 
	C397.683594,425.605438 398.304230,423.292419 402.723053,423.436523 
	C409.034393,423.642273 415.369995,422.996490 421.688995,423.098877 
	C435.549500,423.323547 449.106689,411.975800 450.645142,395.470123 
	C450.965179,392.036255 449.388306,391.104767 446.297241,391.137695 
	C437.812439,391.228180 429.337280,391.459686 421.126068,388.463898 
	C406.488434,383.123474 397.588440,372.803894 393.704742,357.873077 
	C391.967957,351.195984 391.814240,344.424896 391.900696,337.580322 
	C391.964081,332.562927 395.108124,332.654907 398.665405,332.650970 
	C402.294067,332.646973 405.496155,332.772339 405.245575,337.745911 
	C405.103241,340.570099 405.482117,343.432587 405.203583,346.235809 
	C403.726868,361.096771 415.681366,375.416901 430.692017,377.528809 
z"/>
<path fill="#000000" opacity="1.000000" stroke="none" 
	d="
M289.022919,382.000000 
	C289.020782,397.988037 289.053558,413.476196 289.000763,428.964050 
	C288.980988,434.768066 288.293976,435.049561 282.137238,435.338593 
	C277.380005,435.561920 275.594879,433.905090 275.706543,429.072723 
	C275.948853,418.586700 275.755676,408.090729 275.749115,397.598846 
	C275.745056,391.108826 275.751770,391.062469 269.021973,391.118408 
	C262.686523,391.171082 256.403503,391.055573 250.182129,389.496552 
	C231.416718,384.794037 217.939987,367.683929 217.891983,348.281921 
	C217.884567,345.284271 217.795395,342.282745 217.919830,339.290283 
	C218.011597,337.083710 216.969772,334.091217 219.823242,333.152161 
	C222.620911,332.231445 225.794022,332.272552 228.650421,333.292419 
	C230.544800,333.968842 230.192184,336.013611 230.269257,337.652222 
	C230.510971,342.791290 229.988586,347.925812 230.982452,353.078125 
	C233.811356,367.743500 244.938644,377.406891 259.876709,377.824921 
	C275.752197,378.269226 275.750702,378.269226 275.755981,362.509460 
	C275.758728,354.349121 275.998413,346.180389 275.700165,338.031189 
	C275.468872,331.710907 279.684418,333.007874 283.409149,332.659729 
	C287.628265,332.265381 289.096161,333.995758 289.069031,338.033844 
	C288.971802,352.522003 289.026520,367.011200 289.022919,382.000000 
z"/>
<path fill="#000000" opacity="1.000000" stroke="none" 
	d="
M346.380737,253.000153 
	C346.376526,278.654175 346.390808,303.808258 346.329102,328.962128 
	C346.324585,330.812378 347.282532,333.497833 344.774292,334.201599 
	C341.953827,334.992950 338.800964,335.305969 335.952423,334.266571 
	C334.033173,333.566193 334.645386,331.386383 334.636963,329.807648 
	C334.572235,317.647400 334.571167,305.486786 334.571930,293.326263 
	C334.574249,256.531708 334.580566,219.737152 334.600403,182.942596 
	C334.603699,176.826599 339.281097,173.963501 344.720703,176.709335 
	C347.093689,177.907181 346.332520,180.166077 346.336731,182.035721 
	C346.389771,205.523758 346.376678,229.011978 346.380737,253.000153 
z"/>
<path fill="#000000" opacity="1.000000" stroke="none" 
	d="
M246.775970,277.000000 
	C246.779633,262.668518 246.909851,248.835266 246.715225,235.006592 
	C246.651245,230.460602 248.278305,228.755569 252.824646,228.810104 
	C257.052216,228.860809 260.044830,229.485245 260.002625,234.648071 
	C259.744019,266.301361 260.528442,297.957001 259.572144,329.612854 
	C259.351868,336.904053 254.430847,333.864410 251.101318,334.377472 
	C246.779327,335.043457 246.777222,332.036652 246.781845,328.993195 
	C246.807983,311.828857 246.783356,294.664398 246.775970,277.000000 
z"/>
<path fill="#000000" opacity="1.000000" stroke="none" 
	d="
M421.664307,330.531189 
	C421.476196,309.927094 421.211609,289.773651 421.158203,269.619598 
	C421.127319,257.964081 421.611603,246.306030 421.502899,234.652496 
	C421.462189,230.287262 422.890747,228.668732 427.254913,228.804352 
	C431.310333,228.930359 434.331329,229.069229 434.291718,234.551559 
	C434.107574,260.041412 434.213867,285.533417 434.214691,311.024628 
	C434.214874,317.189178 434.220337,323.353729 434.200684,329.518219 
	C434.193085,331.896820 434.204559,335.008423 430.902374,334.326874 
	C427.778320,333.682037 422.679688,337.536682 421.664307,330.531189 
z"/>
<path fill="#000000" opacity="1.000000" stroke="none" 
	d="
M463.216156,285.000000 
	C463.214722,294.478241 463.020020,303.462189 463.284729,312.432526 
	C463.431244,317.397705 460.906647,318.159393 456.796631,318.178162 
	C452.844604,318.196198 450.585480,317.457428 450.646576,312.737457 
	C450.850891,296.944855 450.864563,281.146118 450.650055,265.353821 
	C450.580048,260.201111 453.367706,259.905731 457.300873,259.813263 
	C461.521301,259.713989 463.422180,261.128204 463.267944,265.547913 
	C463.047729,271.858215 463.213745,278.181976 463.216156,285.000000 
z"/>
<path fill="#000000" opacity="1.000000" stroke="none" 
	d="
M230.304276,312.746338 
	C230.541336,319.334625 225.994370,317.766876 222.589844,318.008118 
	C218.709534,318.283112 217.834595,316.002197 217.846222,312.670013 
	C217.901382,296.851196 217.964447,281.031097 217.812088,265.213531 
	C217.766357,260.465057 220.263474,259.829010 224.149994,259.851044 
	C228.055237,259.873169 230.449326,260.595428 230.393478,265.318817 
	C230.208481,280.969238 230.312820,296.623108 230.304276,312.746338 
z"/>
<path fill="#000000" opacity="1.000000" stroke="none" 
	d="
M235.296432,526.807617 
	C236.131714,529.618347 235.784088,531.599426 232.854233,531.987061 
	C230.162674,532.343140 229.480804,530.208618 229.073151,528.230103 
	C227.833145,522.211914 226.695312,516.171875 225.593689,510.126434 
	C225.217133,508.060059 225.202927,505.890594 227.942245,505.478912 
	C230.308533,505.123260 231.020157,506.787933 231.401382,508.806396 
	C231.730133,510.547028 232.343979,512.233826 233.416367,514.293640 
	C235.279861,508.100677 237.626755,502.543243 244.913239,501.820129 
	C247.876938,501.526001 250.552063,502.288849 252.844650,504.166931 
	C258.371002,508.694153 259.428192,520.563721 254.794174,525.588257 
	C249.368225,531.471436 243.777969,530.281128 234.812836,521.167908 
	C233.861618,523.114502 235.140701,524.753845 235.296432,526.807617 
M244.713882,522.605164 
	C247.106659,523.672241 249.249710,523.547485 250.838303,521.204102 
	C253.083862,517.891602 251.250854,510.298737 247.739853,508.239258 
	C244.954865,506.605713 242.002121,507.803253 241.363358,511.210144 
	C240.616577,515.193054 240.673203,519.185730 244.713882,522.605164 
z"/>
<path fill="#000000" opacity="1.000000" stroke="none" 
	d="
M133.029724,542.045166 
	C131.624542,538.919312 132.859695,537.421570 135.384842,536.268860 
	C137.815079,535.159546 139.415604,535.869934 140.989487,537.804077 
	C143.470322,540.852783 146.123901,543.760986 148.684464,546.705750 
	C148.684464,542.484314 148.770599,538.400818 148.654312,534.322998 
	C148.576340,531.588440 149.691498,529.884216 152.294662,529.143372 
	C154.975296,528.380554 155.815735,530.464783 156.702621,532.190125 
	C159.511398,537.654419 162.224121,543.168335 164.946289,548.676758 
	C165.948135,550.704041 166.049942,552.587036 163.580566,553.638000 
	C161.185410,554.657349 160.335587,552.872803 159.474777,551.206909 
	C158.032013,548.414795 156.596497,545.618958 154.704788,541.944458 
	C154.051636,546.178345 154.256821,549.484619 154.855286,552.802246 
	C155.195969,554.690735 155.203445,556.527466 153.227036,557.589111 
	C151.075592,558.744873 149.882278,557.262695 148.642410,555.829956 
	C146.694046,553.578491 144.673645,551.389404 142.230469,548.669250 
	C142.135971,551.909424 143.540146,554.122375 144.342743,556.468140 
	C145.045944,558.523438 146.285004,560.822815 143.423325,562.003052 
	C140.149033,563.353516 139.541580,560.504089 138.767654,558.362976 
	C136.849991,553.057800 135.023163,547.719849 133.029724,542.045166 
z"/>
<path fill="#000000" opacity="1.000000" stroke="none" 
	d="
M340.259277,493.758972 
	C345.929352,495.848419 349.092072,499.358032 349.303741,505.315247 
	C349.522675,511.478119 346.592621,515.360107 341.081635,517.554077 
	C338.891449,518.426086 337.126038,521.405396 334.410126,519.721313 
	C330.698456,517.419678 325.960907,516.555786 323.774841,511.991486 
	C320.626770,505.418610 322.896729,498.228912 329.562988,494.659760 
	C332.841949,492.904175 335.996948,489.218140 340.259277,493.758972 
M332.776306,510.840729 
	C332.658722,507.410492 333.780762,503.807617 331.652679,500.438751 
	C326.712402,504.864807 327.142914,509.053101 332.776306,510.840729 
M339.109253,503.259155 
	C339.475525,505.877350 338.390320,508.726013 340.438812,511.720245 
	C343.585632,508.391968 343.566742,504.978149 341.823822,501.696991 
	C340.667206,499.519501 339.273193,499.770935 339.109253,503.259155 
z"/>
<path fill="#000000" opacity="1.000000" stroke="none" 
	d="
M394.079529,502.752136 
	C393.240631,508.141846 392.565338,513.040833 394.145630,518.003357 
	C394.627869,519.517578 394.352570,521.305359 394.267090,522.959717 
	C394.166779,524.900879 394.506927,527.408142 391.893829,527.824829 
	C389.008667,528.284790 389.001801,525.787598 388.706482,523.816711 
	C388.509186,522.499756 387.665619,521.427673 386.432587,521.588928 
	C382.352722,522.122437 376.938660,518.109131 374.597900,524.949280 
	C374.257385,525.944397 373.111359,526.210144 372.034027,526.012268 
	C370.932861,525.810059 370.184387,525.085632 370.058441,524.035034 
	C369.717102,521.187439 369.361328,517.715515 371.322174,515.870544 
	C376.502869,510.996155 376.896423,504.679718 377.511444,498.467285 
	C377.884857,494.695404 379.394104,493.433807 382.915314,493.986725 
	C384.395203,494.219086 385.883759,494.409393 387.374512,494.556824 
	C394.415710,495.253204 394.416473,495.245544 394.079529,502.752136 
M384.567444,515.413513 
	C388.882568,512.354858 387.071503,507.725159 387.566833,503.689636 
	C387.786835,501.897278 387.012177,500.729553 385.186798,500.579254 
	C383.445892,500.435913 382.954254,501.838104 382.682220,503.154449 
	C382.112701,505.910614 381.927673,508.770447 381.116425,511.445709 
	C380.263641,514.257874 381.514618,515.070129 384.567444,515.413513 
z"/>
<path fill="#000000" opacity="1.000000" stroke="none" 
	d="
M508.525696,540.487793 
	C507.928162,542.447754 507.518982,544.064026 506.951385,545.622498 
	C506.360168,547.245728 505.542084,548.844238 503.372772,548.143555 
	C501.242950,547.455750 500.654663,545.815063 501.301453,543.769104 
	C502.175354,541.004883 503.623566,538.378235 503.478577,534.422974 
	C499.912170,537.236389 496.831665,539.439880 494.028687,541.952881 
	C491.968781,543.799622 489.996643,544.084595 487.715240,542.719238 
	C485.326019,541.289368 486.322174,539.274963 486.945251,537.415466 
	C488.843384,531.750610 490.757690,526.090149 492.764679,520.463318 
	C493.431000,518.595154 494.223938,516.334961 496.938538,517.555542 
	C499.132446,518.541992 499.379822,520.419189 498.521362,522.612061 
	C497.387543,525.508545 496.417572,528.469238 495.076355,532.250427 
	C499.687897,530.326294 502.049652,527.084656 504.979187,524.605774 
	C507.053619,522.850525 509.098511,520.870117 512.019409,522.676819 
	C515.041565,524.546143 513.312134,527.119873 512.589050,529.348755 
	C511.410187,532.982910 509.972748,536.533081 508.525696,540.487793 
z"/>
<path fill="#000000" opacity="1.000000" stroke="none" 
	d="
M468.063232,524.205505 
	C469.284515,520.345154 470.389771,516.870605 471.481018,513.391602 
	C471.832520,512.270874 472.122040,510.889618 473.487061,510.826385 
	C478.380524,510.599701 482.640930,512.326904 486.028870,515.804749 
	C489.059601,518.915833 488.308594,522.157410 485.572357,525.066528 
	C484.149933,526.578796 484.848602,528.049744 485.105133,529.690674 
	C485.844360,534.419678 482.956482,538.437012 478.258026,538.944824 
	C474.577057,539.342712 471.022736,538.261536 467.626587,536.863037 
	C465.502899,535.988525 465.369781,534.244629 465.910126,532.279236 
	C466.612976,529.723083 467.266876,527.153442 468.063232,524.205505 
M478.557220,529.975586 
	C477.873016,528.272949 476.604614,526.968384 474.817596,527.665466 
	C472.973724,528.384766 472.474792,530.204895 473.107544,532.419434 
	C475.246460,532.744446 477.583466,534.091614 478.557220,529.975586 
M480.624329,519.781982 
	C479.851379,517.946411 478.639404,517.159851 476.872070,518.500671 
	C476.206116,519.005859 476.068390,520.077332 476.623444,520.728699 
	C477.986420,522.328125 479.375275,522.164307 480.624329,519.781982 
z"/>
<path fill="#000000" opacity="1.000000" stroke="none" 
	d="
M465.262695,514.074585 
	C466.393768,520.205750 465.388794,525.400635 461.103607,529.612671 
	C456.976990,533.668823 450.971222,534.162048 445.961639,530.989258 
	C441.771088,528.335205 439.240051,521.707214 440.811493,517.029724 
	C441.754364,514.223206 442.442810,511.266632 444.676819,509.040405 
	C451.544189,502.196899 460.791534,504.275665 465.262695,514.074585 
M450.817383,512.270386 
	C447.095245,514.831360 446.870026,518.625916 447.380920,522.546448 
	C447.887817,526.436218 450.635529,527.323547 453.987274,526.707764 
	C457.048431,526.145325 459.967407,520.623962 459.343536,516.968933 
	C458.622955,512.746948 456.200531,511.188934 450.817383,512.270386 
z"/>
<path fill="#000000" opacity="1.000000" stroke="none" 
	d="
M190.239594,526.160156 
	C195.512192,525.381897 198.240448,523.351624 195.775909,517.794739 
	C194.956711,515.947632 195.731049,514.119629 198.068054,513.636230 
	C200.233810,513.188354 200.954041,514.576843 201.502365,516.345154 
	C203.325897,522.225830 205.308975,528.057983 207.066193,533.957764 
	C207.664154,535.965393 208.471268,538.388000 205.318207,539.258484 
	C202.540070,540.025513 202.051620,537.967957 201.284592,536.027283 
	C198.635498,529.324524 198.133560,529.202148 191.726379,533.114929 
	C191.406860,535.507690 192.748413,537.591614 193.118774,539.868408 
	C193.425552,541.754333 192.887146,543.181274 190.949982,543.787292 
	C188.941101,544.415588 187.691833,543.425781 187.106949,541.627869 
	C185.048599,535.300415 183.036087,528.957581 181.075607,522.599121 
	C180.374222,520.324341 181.191879,518.604492 183.526276,517.924927 
	C186.054535,517.188965 186.510345,519.238403 187.301407,520.898682 
	C188.137924,522.654419 187.948837,524.930542 190.239594,526.160156 
z"/>
<path fill="#000000" opacity="1.000000" stroke="none" 
	d="
M292.682037,518.282104 
	C293.623596,513.479858 296.423889,509.321503 292.505463,504.543335 
	C290.360443,501.927612 292.086121,498.400208 294.812469,496.223236 
	C295.944580,495.319244 297.432983,494.754364 298.847656,494.328979 
	C307.328125,491.778961 309.741547,493.402588 310.168518,502.178558 
	C310.387085,506.670776 310.520782,511.150482 311.205780,515.610474 
	C311.513184,517.611877 311.494659,519.803772 308.639557,520.113647 
	C305.904266,520.410645 305.384674,518.467712 304.950256,516.384216 
	C304.591095,514.661438 305.347656,512.681702 303.685760,511.032349 
	C299.339935,511.778748 299.920044,515.942078 298.630249,518.668884 
	C297.811951,520.398987 296.854889,521.367676 294.978241,521.483582 
	C292.858643,521.614502 292.409241,520.416809 292.682037,518.282104 
M301.016724,499.953918 
	C299.051483,500.548126 297.526154,501.544495 299.061157,503.741394 
	C299.986908,505.066284 301.918274,505.406342 302.916748,504.216644 
	C304.253967,502.623444 304.647858,500.582123 301.016724,499.953918 
z"/>
<path fill="#000000" opacity="1.000000" stroke="none" 
	d="
M536.090576,559.368408 
	C533.874329,560.736816 532.182434,560.236572 530.971680,558.578186 
	C529.627930,556.737671 531.160156,555.521118 532.281250,554.303467 
	C536.456726,549.768372 540.667419,545.265137 544.803101,540.694092 
	C546.642639,538.660889 548.480957,537.539612 551.329346,538.954895 
	C554.162354,540.362549 554.435608,542.664551 554.078735,545.259766 
	C553.239990,551.359802 552.321411,557.449158 551.393250,563.536438 
	C551.129883,565.263550 551.346985,567.684448 548.540100,567.186157 
	C546.141724,566.760376 544.572876,565.136475 545.334106,562.499146 
	C546.423218,558.725464 544.306580,557.302002 541.282715,556.419312 
	C538.782776,555.689453 537.782410,557.792236 536.090576,559.368408 
z"/>
<path fill="#000000" opacity="1.000000" stroke="none" 
	d="
M422.136780,504.541565 
	C423.083466,502.179077 422.912018,498.936462 426.392578,499.814117 
	C429.753387,500.661560 429.268341,503.336914 428.621979,505.909637 
	C428.472717,506.503754 428.599976,507.167389 428.599976,508.177307 
	C433.246063,506.954163 435.266296,498.663910 441.890869,503.802155 
	C440.781189,508.144562 435.573181,509.065704 434.024017,513.246094 
	C436.161255,516.826721 437.300049,520.927490 437.503632,525.282043 
	C437.571350,526.730469 438.079407,528.575195 435.921692,528.844482 
	C434.171692,529.062866 432.533508,528.288696 431.978912,526.460876 
	C431.353973,524.401184 431.079437,522.237732 430.570557,520.139343 
	C430.236816,518.763245 429.436584,517.617920 427.922913,517.531006 
	C426.098846,517.426392 426.001465,519.063538 425.621002,520.282288 
	C425.324951,521.230835 425.237579,522.243347 424.958099,523.198303 
	C424.391998,525.132812 423.377747,526.592407 421.042297,525.995239 
	C418.583252,525.366394 418.835907,523.559326 419.188629,521.619751 
	C420.198151,516.068237 421.113342,510.499512 422.136780,504.541565 
z"/>
<path fill="#000000" opacity="1.000000" stroke="none" 
	d="
M173.935791,542.741821 
	C176.511414,543.457520 178.245392,541.760315 180.308899,541.276855 
	C181.865326,540.912170 183.374329,540.695190 184.094604,542.520264 
	C184.785141,544.270081 184.489075,545.933411 182.586761,546.683167 
	C179.193024,548.020752 175.741882,549.220215 172.281387,550.377686 
	C170.553726,550.955566 169.400513,550.124695 168.798431,548.476440 
	C166.462997,542.082764 164.098785,535.699219 161.821014,529.284973 
	C161.126465,527.329102 161.534729,525.642700 163.721313,524.842896 
	C166.684540,523.759033 169.660095,522.708923 172.627579,521.636658 
	C174.464890,520.972778 175.915527,521.331787 176.705276,523.243103 
	C177.533112,525.246521 176.507828,526.382141 174.761993,527.123474 
	C174.456680,527.253113 174.091583,527.285156 173.831253,527.470581 
	C172.280533,528.575378 168.679398,528.256409 169.925400,531.361206 
	C171.006271,534.054504 173.405426,531.842163 175.155029,531.453491 
	C176.869720,531.072632 178.448135,530.524414 179.330032,532.674133 
	C180.364838,535.196533 178.917099,536.385864 176.841095,537.190735 
	C174.367249,538.149780 171.231720,538.694275 173.935791,542.741821 
z"/>
<path fill="#000000" opacity="1.000000" stroke="none" 
	d="
M368.970825,516.307129 
	C369.256134,519.086914 367.898987,519.841125 365.777405,520.130371 
	C354.911133,521.612183 352.573242,519.638428 352.727234,508.817749 
	C352.784058,504.826294 352.990784,500.836945 353.125122,496.846527 
	C353.230286,493.722168 354.809998,492.404999 357.941620,492.644501 
	C360.592529,492.847229 363.265442,492.745453 365.922302,492.892426 
	C367.753754,492.993683 369.160736,493.750366 369.159943,495.894867 
	C369.159180,498.040405 367.688751,498.586182 365.923523,498.972137 
	C363.747894,499.447845 360.747559,497.937073 359.629944,501.294495 
	C360.893311,503.520966 362.959412,502.606689 364.644867,502.828552 
	C366.686707,503.097382 368.255249,503.723724 368.111542,506.141174 
	C367.986938,508.237305 366.549377,508.896790 364.705902,509.011902 
	C364.207794,509.042969 363.705048,509.023010 363.210144,509.077881 
	C361.338562,509.285370 358.617157,508.619720 358.771393,511.631775 
	C358.919312,514.520508 361.633728,513.731140 363.488190,513.943420 
	C365.443939,514.167236 367.555237,513.900208 368.970825,516.307129 
z"/>
<path fill="#000000" opacity="1.000000" stroke="none" 
	d="
M405.710327,497.682739 
	C405.508392,502.671021 406.557983,505.928894 411.927429,507.359955 
	C415.661346,508.355133 417.707336,511.906311 417.081177,516.052979 
	C416.447418,520.249878 413.749603,522.895874 409.630585,523.809937 
	C407.877747,524.198975 405.981903,524.198303 404.177063,524.052612 
	C397.771027,523.535461 396.886780,522.452026 397.787537,516.010620 
	C398.546234,510.585205 399.560089,505.195923 400.379547,499.778351 
	C400.900574,496.333954 402.527405,495.505981 405.710327,497.682739 
M404.396332,516.805847 
	C405.562805,519.253357 407.263977,518.667542 408.859009,517.437561 
	C409.952118,516.594604 410.573486,515.323914 409.940918,513.898376 
	C409.262360,512.369141 407.823334,511.525269 406.313049,511.734863 
	C403.697357,512.097839 404.395538,514.372131 404.396332,516.805847 
z"/>
<path fill="#000000" opacity="1.000000" stroke="none" 
	d="
M259.272461,501.299927 
	C264.261078,496.816376 272.476654,496.580658 276.056702,500.430054 
	C280.259766,504.949249 278.839600,511.729248 272.867523,514.336853 
	C269.846252,515.656067 267.616638,516.932800 268.239349,520.773376 
	C268.599945,522.997314 268.321686,525.378113 265.328491,525.527832 
	C262.247498,525.681885 262.878357,523.050232 262.559906,521.225220 
	C261.424011,514.715332 260.304718,508.202576 259.272461,501.299927 
M270.569763,508.928528 
	C272.507050,506.853485 272.292023,504.965363 269.757446,503.748840 
	C268.202606,503.002563 266.584808,503.556915 266.454803,505.513763 
	C266.303833,507.785461 266.591614,510.096161 270.569763,508.928528 
z"/>
<path fill="#000000" opacity="1.000000" stroke="none" 
	d="
M524.000488,547.187378 
	C523.272522,546.410767 522.650330,545.845398 521.921631,545.515076 
	C514.013794,541.930542 512.397217,533.602722 518.362610,527.264587 
	C519.437744,526.122314 520.522888,525.918396 521.913818,526.532349 
	C523.479797,527.223572 524.398621,528.330261 523.885681,530.038574 
	C523.363647,531.776978 522.565735,533.432983 521.881653,535.122253 
	C520.984436,537.337769 521.477234,538.934814 523.777588,539.966064 
	C526.259216,541.078613 527.477539,539.971313 528.308899,537.765808 
	C528.951660,536.060730 529.623108,534.354675 530.448364,532.733826 
	C531.219910,531.218323 532.445007,530.631409 534.168701,531.419861 
	C535.707092,532.123474 536.845215,533.209839 536.210876,534.879883 
	C533.624878,541.688538 530.936707,548.460815 528.133667,555.182922 
	C527.475769,556.760620 525.955994,557.046082 524.320740,556.305603 
	C522.730164,555.585266 522.001709,554.477356 522.497131,552.739563 
	C522.996033,550.989624 523.535339,549.251160 524.000488,547.187378 
z"/>
<path fill="#000000" opacity="1.000000" stroke="none" 
	d="
M121.540031,543.650330 
	C124.269920,540.706299 126.232147,541.135620 127.804428,544.406311 
	C130.393234,549.791443 133.128357,555.107239 135.656418,560.520203 
	C136.638092,562.622131 137.665298,565.089478 134.601517,566.474854 
	C131.476425,567.887939 130.963837,565.060364 130.139481,563.256775 
	C127.201126,556.827820 122.981674,550.978088 121.540031,543.650330 
z"/>
<path fill="#000000" opacity="1.000000" stroke="none" 
	d="
M284.865051,496.065369 
	C288.981567,500.047546 287.187225,505.356079 288.745972,509.844910 
	C289.700317,512.593201 289.386749,515.769958 289.741302,518.742493 
	C289.979553,520.740295 289.235291,521.970398 287.282410,522.414917 
	C285.266663,522.873718 283.845856,521.921631 283.588470,520.041504 
	C282.620300,512.968872 281.741150,505.879211 281.077911,498.772675 
	C280.895264,496.815643 282.518097,495.930756 284.865051,496.065369 
z"/>
<path fill="#000000" opacity="1.000000" stroke="none" 
	d="
M217.451767,532.432556 
	C218.254288,535.128540 217.021210,536.293213 214.982422,536.738586 
	C212.915283,537.190186 211.825211,535.743591 211.348923,534.106079 
	C209.501053,527.752625 207.771881,521.363708 206.076645,514.967285 
	C205.552582,512.989990 205.987549,511.298676 208.280396,510.703033 
	C210.599457,510.100586 211.640244,511.383972 212.193939,513.400757 
	C213.902725,519.624817 215.630066,525.843811 217.451767,532.432556 
z"/>
<path fill="#000000" opacity="1.000000" stroke="none" 
	d="
M410.829376,612.086975 
	C410.486633,612.978638 410.180756,614.102234 410.142334,615.234985 
	C410.093109,616.686707 409.825165,617.965393 408.242920,618.334229 
	C406.584717,618.720703 405.737640,617.658752 405.412567,616.228516 
	C404.381134,611.691223 403.388916,607.144348 402.453613,602.586304 
	C402.107483,600.899597 402.791901,599.633118 404.490173,599.083923 
	C406.261108,598.511353 407.751038,599.002502 408.989105,600.381409 
	C410.423645,601.979187 410.783966,604.352905 413.080048,605.829102 
	C414.292664,603.631836 413.481689,601.269043 413.916656,599.133240 
	C414.319885,597.153381 415.310150,595.657959 417.370941,595.363892 
	C419.409332,595.072998 420.410095,596.599304 420.950775,598.216492 
	C422.322662,602.319458 423.523651,606.479309 424.818390,610.608398 
	C425.319427,612.206299 425.342804,613.694763 423.489349,614.306519 
	C421.518005,614.957214 420.850006,613.399475 420.302216,611.977356 
	C419.705719,610.428772 419.241028,608.829407 418.697021,607.186340 
	C417.411438,608.142090 418.373749,609.544373 417.876984,610.602844 
	C417.026428,612.415344 418.221893,615.433838 415.261047,615.940369 
	C412.784424,616.363953 412.226807,613.772034 410.829376,612.086975 
z"/>
<path fill="#000000" opacity="1.000000" stroke="none" 
	d="
M368.128906,617.573425 
	C367.888702,615.156494 367.824402,613.157593 367.571045,611.182861 
	C366.866241,605.688416 367.497711,604.938110 373.241974,604.742859 
	C381.123901,604.474976 384.834534,607.386536 385.113403,614.057800 
	C385.363464,620.040039 380.228760,624.763062 373.312134,625.061890 
	C367.921631,625.294861 369.581146,620.591980 368.128906,617.573425 
M378.049683,610.470154 
	C373.548309,608.815125 372.372620,610.025269 373.382904,615.494812 
	C373.686096,617.136169 373.558777,619.611328 376.138611,619.325317 
	C378.263763,619.089661 379.374695,617.245850 379.711853,615.147522 
	C379.956421,613.624939 379.531097,612.227722 378.049683,610.470154 
z"/>
<path fill="#000000" opacity="1.000000" stroke="none" 
	d="
M339.156799,585.035828 
	C334.436890,589.614136 329.202057,589.614929 326.736420,585.379639 
	C325.749847,583.685120 326.552582,572.887329 327.777496,571.342896 
	C329.811035,568.779175 332.543701,568.297546 335.410858,569.255554 
	C338.273315,570.211914 339.993835,572.621277 338.990021,575.480652 
	C337.838501,578.760925 340.978149,581.598999 339.156799,585.035828 
z"/>
<path fill="#000000" opacity="1.000000" stroke="none" 
	d="
M286.041748,619.319641 
	C283.395355,622.173462 282.328522,620.571838 281.405457,618.163147 
	C279.896820,614.226501 278.354736,613.843872 275.240631,616.753845 
	C273.914124,617.993469 272.683777,619.062622 270.984344,617.743164 
	C269.371429,616.490906 270.352997,615.051392 271.098145,613.772949 
	C273.261810,610.060730 275.477020,606.378540 277.660309,602.677673 
	C278.634918,601.025757 279.774628,599.605408 281.974487,600.160339 
	C283.980530,600.666504 285.010315,602.134338 285.162445,604.119751 
	C285.540405,609.050659 285.830658,613.988281 286.041748,619.319641 
z"/>
<path fill="#000000" opacity="1.000000" stroke="none" 
	d="
M351.660828,612.808960 
	C352.082916,611.304932 352.480713,610.205383 352.712189,609.071777 
	C353.054565,607.394836 354.039886,606.426819 355.680389,606.143433 
	C357.440002,605.839478 358.624603,606.789551 359.221161,608.270935 
	C361.080597,612.888367 362.824707,617.552368 364.598022,622.204224 
	C365.121765,623.578125 365.132751,624.879761 363.552551,625.556641 
	C362.064911,626.193909 360.880951,625.490479 360.194397,624.233398 
	C357.603638,619.489624 355.397430,620.325195 353.368469,624.613525 
	C352.714966,625.994690 351.707153,626.797913 350.212311,626.220215 
	C348.657532,625.619385 348.647247,624.075317 348.946503,622.804077 
	C349.706482,619.575806 350.676331,616.396912 351.660828,612.808960 
z"/>
<path fill="#000000" opacity="1.000000" stroke="none" 
	d="
M316.891846,608.963867 
	C320.409088,604.644836 322.784271,604.839111 324.259033,609.533020 
	C325.590149,613.769653 326.391754,618.178772 327.299896,622.538330 
	C327.560181,623.788025 327.730316,625.363464 326.051025,625.891907 
	C324.576752,626.355713 323.513153,625.607788 322.893494,624.211182 
	C321.017639,619.983398 318.708405,619.979736 316.133392,623.584351 
	C315.296570,624.755676 314.345886,625.730896 312.869812,625.107300 
	C311.047760,624.337463 311.313873,622.644531 311.848755,621.257690 
	C313.395660,617.246887 315.111633,613.301331 316.891846,608.963867 
z"/>
<path fill="#000000" opacity="1.000000" stroke="none" 
	d="
M436.698120,593.281616 
	C436.703400,590.833069 436.503296,588.758667 438.986389,587.876099 
	C441.434113,587.006042 442.702148,588.691589 443.992645,590.187866 
	C446.595276,593.205505 449.139282,596.274414 451.668396,599.354309 
	C452.739410,600.658447 453.918640,602.129150 452.214203,603.681641 
	C450.907532,604.871765 449.501556,604.468811 448.208160,603.329346 
	C444.687500,600.227844 442.879944,601.570190 442.268219,605.722351 
	C442.029205,607.344543 441.451660,608.791504 439.578888,608.654297 
	C437.875610,608.529541 437.792297,606.975647 437.681915,605.624634 
	C437.357941,601.659363 437.028687,597.694641 436.698120,593.281616 
z"/>
<path fill="#000000" opacity="1.000000" stroke="none" 
	d="
M393.461945,607.983032 
	C394.668549,608.088562 395.659485,608.026001 396.651276,607.981018 
	C397.956055,607.921753 398.958252,608.362244 399.251862,609.751465 
	C399.527618,611.055969 398.926636,611.946167 397.858093,612.679443 
	C396.603210,613.540588 394.346680,613.001160 394.083496,615.343994 
	C395.360870,617.395325 397.091553,615.814453 398.586609,615.890015 
	C399.810425,615.951904 400.982819,615.983215 401.322723,617.450684 
	C401.685242,619.015747 400.867706,619.902100 399.524597,620.577942 
	C393.174622,623.773438 389.934692,622.202332 388.780182,615.359680 
	C388.477386,613.565186 388.094330,611.778503 387.638306,610.016602 
	C385.874420,603.202393 387.159637,601.437378 394.325073,600.960754 
	C396.014313,600.848328 397.841400,600.640869 398.249542,602.927429 
	C398.600464,604.893616 396.999664,605.374817 395.628632,606.013489 
	C394.718567,606.437378 393.021851,605.890991 393.461945,607.983032 
z"/>
<path fill="#000000" opacity="1.000000" stroke="none" 
	d="
M336.447113,607.152161 
	C338.424347,606.687561 340.052124,606.119629 341.667755,606.152344 
	C343.525482,606.189880 345.509521,606.776733 345.455353,609.208984 
	C345.403107,611.555420 343.633453,611.397705 341.843567,611.463684 
	C337.302765,611.631042 335.442322,613.702637 336.051025,617.548401 
	C336.521698,620.522400 338.392090,621.753845 341.269958,621.845886 
	C343.121979,621.905090 345.344757,621.924866 344.922791,624.638489 
	C344.568817,626.914856 342.438507,627.160583 340.587982,627.094666 
	C336.024048,626.932190 332.567444,624.911316 330.971924,620.470093 
	C329.071106,615.179260 330.726715,611.101257 336.447113,607.152161 
z"/>
<path fill="#000000" opacity="1.000000" stroke="none" 
	d="
M364.037048,574.715698 
	C368.890717,577.345947 370.609741,580.359741 369.001770,584.276428 
	C367.474762,587.995850 364.214386,589.124573 360.449463,588.768616 
	C358.788635,588.611572 356.961212,588.043640 356.980621,585.922119 
	C357.000000,583.810425 358.495972,583.191284 360.435852,583.413940 
	C361.932404,583.585632 363.470581,583.798950 364.073486,581.967651 
	C364.116241,581.056763 363.574249,580.486084 362.941864,580.475708 
	C357.598267,580.387939 357.305450,577.616455 358.385315,573.203979 
	C359.093140,570.311707 359.935760,568.562439 363.100281,568.891357 
	C365.244751,569.114197 368.396454,567.921509 368.881104,571.131104 
	C369.419891,574.699463 365.832184,573.666931 364.037048,574.715698 
z"/>
<path fill="#000000" opacity="1.000000" stroke="none" 
	d="
M269.055786,598.879517 
	C270.541046,597.747620 271.831635,597.537292 272.890076,598.746704 
	C273.971161,599.982117 273.346619,601.251343 272.545227,602.386841 
	C269.856781,606.196106 267.300873,610.113037 264.397766,613.752197 
	C262.184967,616.526062 258.590881,615.708618 258.202515,612.207520 
	C257.636169,607.102173 257.847717,601.907288 257.799957,596.749939 
	C257.788116,595.467773 258.404266,594.432434 259.892426,594.519409 
	C261.531708,594.615356 262.197388,595.791748 262.232422,597.242432 
	C262.306946,600.327881 262.255188,603.416321 263.259888,606.655579 
	C265.105347,604.149292 266.950775,601.643005 269.055786,598.879517 
z"/>
<path fill="#000000" opacity="1.000000" stroke="none" 
	d="
M232.605835,597.503845 
	C232.673599,594.236572 232.677856,591.416443 232.773911,588.599365 
	C232.824890,587.104126 232.866028,585.320190 234.982025,585.421021 
	C236.942337,585.514343 237.981201,586.931702 237.795670,588.824463 
	C237.541733,591.415039 236.996765,593.976929 237.743118,597.501343 
	C240.013779,594.854614 241.779236,592.768433 243.577393,590.710815 
	C244.754974,589.363342 246.166245,589.211365 247.529922,590.322998 
	C249.083099,591.589172 248.497238,592.947510 247.404190,594.193726 
	C244.674423,597.306030 241.980957,600.452576 239.171524,603.491638 
	C237.754929,605.023987 236.321472,607.179749 233.771606,605.689270 
	C231.511520,604.368042 231.757050,602.109680 232.237808,599.910400 
	C232.379196,599.263611 232.467712,598.605286 232.605835,597.503845 
z"/>
<path fill="#000000" opacity="1.000000" stroke="none" 
	d="
M303.695862,606.123901 
	C297.908539,609.363403 297.065399,614.852783 296.305298,620.459900 
	C296.109283,621.905884 294.995667,622.771851 293.358063,622.313416 
	C291.975952,621.926392 291.614044,620.799622 291.747864,619.579224 
	C291.963959,617.608215 292.486511,615.665161 292.625122,613.692444 
	C292.818848,610.934937 294.158478,608.020081 290.115448,606.226196 
	C288.021454,605.296997 288.878571,602.319031 291.139679,602.469604 
	C295.413055,602.754395 300.220795,601.893738 303.695862,606.123901 
z"/>
<path fill="#000000" opacity="1.000000" stroke="none" 
	d="
M353.097321,569.256287 
	C354.471039,570.190735 355.183655,571.278625 354.660583,572.429504 
	C352.473175,577.242310 350.205994,582.022888 347.804565,586.731873 
	C347.077759,588.157043 345.574310,588.921326 344.020050,587.902161 
	C342.377808,586.825317 343.021912,585.326782 343.743195,583.942017 
	C345.250336,581.048462 346.754730,578.153503 348.061707,575.640869 
	C347.243317,574.105042 346.346954,574.241272 345.558594,574.160278 
	C343.653809,573.964600 341.703064,573.698853 341.970459,571.127258 
	C342.205322,568.868164 344.142853,568.909546 345.780640,568.892151 
	C348.093018,568.867493 350.407227,569.017639 353.097321,569.256287 
z"/>
<path fill="#000000" opacity="1.000000" stroke="none" 
	d="
M316.079407,581.932983 
	C315.925446,578.935364 316.423706,576.412170 313.557037,574.502197 
	C311.508118,573.137146 312.900787,571.244812 314.700836,570.234436 
	C316.800232,569.055969 319.581696,567.838257 320.508301,570.966492 
	C321.969757,575.900391 321.375275,581.115906 320.725189,586.204895 
	C320.592133,587.246643 319.663574,587.915222 318.587189,587.977051 
	C317.156036,588.059082 316.513458,587.027527 316.295654,585.830200 
	C316.090332,584.701294 316.140259,583.525879 316.079407,581.932983 
z"/>
<path fill="#000000" opacity="1.000000" stroke="none" 
	d="
M424.780914,595.325806 
	C426.300293,591.677979 428.054779,591.702454 429.407013,594.894470 
	C431.024963,598.713867 432.270233,602.691528 433.663757,606.605347 
	C434.337860,608.498657 434.454773,610.400879 432.227051,611.217346 
	C429.984558,612.039307 429.307404,610.070312 428.793213,608.545532 
	C427.361267,604.299072 426.100708,599.994812 424.780914,595.325806 
z"/>
<path fill="#000000" opacity="1.000000" stroke="none" 
	d="
M251.149078,607.083496 
	C250.176056,608.898254 250.122940,611.576843 247.567627,610.714233 
	C244.957169,609.833008 245.812073,607.560913 246.474350,605.665894 
	C247.726883,602.081848 249.028091,598.514648 250.328293,594.947510 
	C250.833481,593.561523 251.226135,591.821533 253.272400,592.437927 
	C255.277252,593.041870 255.553894,594.811279 255.010468,596.487122 
	C253.891541,599.937622 252.540970,603.313110 251.149078,607.083496 
z"/>
<path fill="#000000" opacity="1.000000" stroke="none" 
	d="
M380.296387,584.500916 
	C377.632812,583.177429 376.512207,581.411377 377.524323,578.772766 
	C378.091949,577.292847 379.144287,576.237671 380.781891,576.171387 
	C382.614014,576.097168 384.046295,577.091736 384.562744,578.768005 
	C385.609894,582.166626 384.095703,584.086548 380.296387,584.500916 
z"/>
<path fill="#000000" opacity="1.000000" stroke="none" 
	d="
M301.663696,576.417908 
	C304.405182,578.043396 304.796143,580.163452 303.714386,582.543579 
	C303.047119,584.011597 301.713959,584.762939 300.047913,584.381897 
	C298.250275,583.970703 297.068176,582.691284 297.005554,580.922119 
	C296.906403,578.121826 297.998596,576.088989 301.663696,576.417908 
z"/>
</svg>